<?xml version="1.0" encoding="UTF-8" standalone="no"?>
<svg
   xmlns:dc="http://purl.org/dc/elements/1.1/"
   xmlns:cc="http://creativecommons.org/ns#"
   xmlns:rdf="http://www.w3.org/1999/02/22-rdf-syntax-ns#"
   xmlns:svg="http://www.w3.org/2000/svg"
   xmlns="http://www.w3.org/2000/svg"
   xmlns:sodipodi="http://sodipodi.sourceforge.net/DTD/sodipodi-0.dtd"
   xmlns:inkscape="http://www.inkscape.org/namespaces/inkscape"
   version="1.0"
   width="829.77368pt"
   height="1199.9133pt"
   viewBox="0 0 829.77368 1199.9133"
   preserveAspectRatio="xMidYMid meet"
   id="svg6"
   sodipodi:docname="location_pin_empty.svg"
   inkscape:version="0.92.3 (2405546, 2018-03-11)">
  <metadata
     id="metadata12">
    <rdf:RDF>
      <cc:Work
         rdf:about="">
        <dc:format>image/svg+xml</dc:format>
        <dc:type
           rdf:resource="http://purl.org/dc/dcmitype/StillImage" />
        <dc:title></dc:title>
      </cc:Work>
    </rdf:RDF>
  </metadata>
  <defs
     id="defs10" />
  <sodipodi:namedview
     pagecolor="#ffffff"
     bordercolor="#666666"
     borderopacity="1"
     objecttolerance="10"
     gridtolerance="10"
     guidetolerance="10"
     inkscape:pageopacity="0"
     inkscape:pageshadow="2"
     inkscape:window-width="1920"
     inkscape:window-height="1028"
     id="namedview8"
     showgrid="false"
     fit-margin-top="0"
     fit-margin-left="0"
     fit-margin-right="0"
     fit-margin-bottom="0"
     inkscape:zoom="0.2765625"
     inkscape:cx="-22.35963"
     inkscape:cy="533.64374"
     inkscape:window-x="-8"
     inkscape:window-y="22"
     inkscape:window-maximized="1"
     inkscape:current-layer="g4" />
  <g
     transform="matrix(0.1,0,0,-0.1,-0.11953244,1279.9134)"
     id="g4"
     style="fill:#e91e63;stroke:none">
    <path
       sodipodi:type="inkscape:offset"
       inkscape:radius="0"
       inkscape:original="M 4150 800 C 4146 800 3403 1994 2500 3453 C 1596 4911 805 6184 740 6280 C 592 6502 518 6630 409 6855 C 155 7380 22 7930 3 8535 C -45 10152 868 11663 2325 12375 C 2812 12613 3300 12745 3855 12789 C 3910 12794 4032 12798 4126 12799 C 4979 12806 5834 12538 6530 12047 C 7348 11471 7926 10634 8170 9676 C 8411 8724 8312 7724 7891 6855 C 7782 6630 7708 6502 7560 6280 C 7495 6184 6704 4911 5800 3452 C 4897 1994 4154 800 4150 800 z M 4150 6899.5 C 4244.5 6899.5 4339 6903 4396 6910 C 4923 6975 5405 7236 5740 7638 C 6435 8470 6379 9689 5610 10450 C 5303 10754 4930 10945 4490 11025 C 4361 11048 4010 11054 3880 11035 C 3245 10943 2713 10598 2383 10067 C 2088 9590 1999 8999 2140 8454 C 2354 7625 3051 7015 3904 6910 C 3961 6903 4055.5 6899.5 4150 6899.5 z "
       id="path2"
       d="m 4150,800 c -4,0 -747,1194 -1650,2653 C 1596,4911 805,6184 740,6280 592,6502 518,6630 409,6855 155,7380 22,7930 3,8535 c -48,1617 865,3128 2322,3840 487,238 975,370 1530,414 55,5 177,9 271,10 853,7 1708,-261 2404,-752 818,-576 1396,-1413 1640,-2371 C 8411,8724 8312,7724 7891,6855 7782,6630 7708,6502 7560,6280 7495,6184 6704,4911 5800,3452 4897,1994 4154,800 4150,800 Z m 0,6099.5 c 94.5,0 189,3.5 246,10.5 527,65 1009,326 1344,728 695,832 639,2051 -130,2812 -307,304 -680,495 -1120,575 -129,23 -480,29 -610,10 -635,-92 -1167,-437 -1497,-968 -295,-477 -384,-1068 -243,-1613 214,-829 911,-1439 1764,-1544 57,-7 151.5,-10.5 246,-10.5 z"
       style="fill:#5e7c98;fill-opacity:1" />
    <path
       transform="translate(1.3940576e-8,2.5621255e-4)"
       style="fill:#bdcfe0;fill-opacity:1"
       d="m 4150.0312,1720.3848 c -28.2928,45.4476 -42.2378,67.6431 -72.9921,117.084 -298.849,480.4311 -710.2135,1143.4648 -1161.543,1872.6894 l -0.207,0.332 c -452.0725,729.117 -875.8973,1411.9905 -1195.0274,1924.9004 -319.1301,512.91 -496.8855,802.2444 -575.6465,918.5684 l 1.9551,-2.9121 C 1005.0102,6763.387 951.65672,6855.6358 848.86328,7067.8105 624.07615,7532.4296 508.51441,8007.2732 491.41406,8549.8477 449.27709,9974.0033 1255.3141,11308.409 2539.5391,11935.979 h 0.012 c 435.3404,212.754 853.3236,326.208 1354.0664,365.907 1.8746,0.149 3.7483,0.308 5.6211,0.478 13.487,1.226 146.6776,7.088 231.3437,8.008 747.798,6.012 1507.4879,-232.148 2117.7422,-662.658 l 0.3477,-0.244 C 6972.9595,11137.463 7481.0734,10400.729 7696.377,9555.7832 7909.489,8713.6538 7821.1817,7831.6311 7451.25,7068.043 v -0.01 c -102.8697,-212.3458 -156.2047,-304.568 -297.8183,-516.9883 l 1.9551,2.9121 c -78.761,-116.324 -256.5313,-405.6831 -575.6739,-918.7383 -319.1425,-513.0552 -742.9846,-1196.2034 -1195.08,-1925.8574 l -0.047,-0.078 C 4933.233,2980.5258 4521.8515,2317.7188 4222.9902,1837.3926 c -30.7401,-49.4051 -44.6778,-71.5895 -72.959,-117.0078 z"
       id="path2-3"
       inkscape:connector-curvature="0"
       sodipodi:nodetypes="ccccsccccccccccccccccsccsc" />
  </g>
</svg>
